<svg width="124" height="32" viewBox="0 0 124 32" fill="none" xmlns="http://www.w3.org/2000/svg">
<g id="Logo">
<path id="Vector" d="M7.92002 22.52V16.54L3.68002 20.76L2.76002 19.86L7.00002 15.62H1.02002V14.34H7.00002L2.76002 10.12L3.68002 9.2L7.92002 13.42V7.44H9.20002V13.42L13.44 9.2L14.34 10.12L10.12 14.34H16.1V15.62H10.12L14.34 19.86L13.44 20.76L9.20002 16.54V22.52H7.92002ZM24.2654 22V9.2H26.1654V20.5H31.2054V22H24.2654ZM33.1043 22V12.76H34.9443V22H33.1043ZM32.8843 11.44V9.56H35.1843V11.44H32.8843ZM37.5339 22V8.4H39.4139V15.94H40.1539C41.1939 15.94 41.8939 15.68 42.4739 14.24L42.9939 12.76H44.8539L44.2339 14.46C43.6739 15.98 42.7539 16.54 41.5939 16.6V16.66C42.7539 16.74 43.6139 17.4 44.1739 18.8L45.4339 22H43.5339L42.3739 19.02C41.9339 17.9 41.2739 17.34 40.0539 17.34H39.4139V22H37.5339ZM50.6077 22.26C47.9677 22.26 46.3477 20.22 46.3477 17.4C46.3477 14.58 47.9877 12.5 50.5677 12.5C52.9277 12.5 54.3677 14.32 54.3677 17.32H48.1677C48.1677 19.42 49.0877 20.84 50.7477 20.84C51.8277 20.84 52.6677 20.24 53.3877 19.12L54.4477 20.22C53.5077 21.5 52.3277 22.26 50.6077 22.26ZM48.2877 16.1H52.5277C52.4677 14.82 51.7677 13.88 50.5477 13.88C49.4277 13.88 48.5477 14.72 48.2877 16.1ZM56.2591 22V8.4H58.1391V22H56.2591ZM60.711 22V12.76H62.551V22H60.711ZM60.491 11.44V9.56H62.791V11.44H60.491ZM68.7406 22.26C66.3006 22.26 64.6406 20.26 64.6406 17.4C64.6406 14.48 66.3006 12.5 68.7406 12.5C71.1606 12.5 72.8406 14.48 72.8406 17.4C72.8406 20.26 71.1606 22.26 68.7406 22.26ZM66.5006 17.4C66.5006 19.44 67.3806 20.84 68.7406 20.84C70.1006 20.84 70.9806 19.44 70.9806 17.4C70.9806 15.34 70.1006 13.94 68.7406 13.94C67.3806 13.94 66.5006 15.34 66.5006 17.4ZM74.845 22V12.76H76.705V14.24H76.785C77.485 13.1 78.645 12.5 79.845 12.5C81.465 12.5 82.765 13.48 82.765 16.18V22H80.905V16.48C80.905 14.74 80.385 13.88 79.125 13.88C77.685 13.88 76.705 15.08 76.705 16.66V22H74.845ZM90.9019 22V9.2H93.7619C96.2019 9.2 97.6819 10.32 97.6819 12.14C97.6819 13.44 96.8619 14.4 95.3819 14.66V14.74C97.3619 14.9 98.7619 16.16 98.7619 18.24C98.7619 20.4 97.0419 22 94.0019 22H90.9019ZM92.7419 20.54H94.0219C95.8419 20.54 96.9619 19.56 96.9619 18C96.9619 16.52 95.8619 15.54 93.9419 15.56H92.7419V20.54ZM92.7419 14.2H93.9419C95.2219 14.2 96.0219 13.52 96.0219 12.42C96.0219 11.32 95.1619 10.66 93.7819 10.66H92.7419V14.2ZM100.736 22V8.4H102.616V22H100.736ZM108.727 22.26C106.287 22.26 104.627 20.26 104.627 17.4C104.627 14.48 106.287 12.5 108.727 12.5C111.147 12.5 112.827 14.48 112.827 17.4C112.827 20.26 111.147 22.26 108.727 22.26ZM106.487 17.4C106.487 19.44 107.367 20.84 108.727 20.84C110.087 20.84 110.967 19.44 110.967 17.4C110.967 15.34 110.087 13.94 108.727 13.94C107.367 13.94 106.487 15.34 106.487 17.4ZM116.912 25.98C119.212 24.38 120.652 22.8 120.872 20.62H120.792C120.132 21.7 119.152 22.26 117.972 22.26C115.772 22.26 114.332 20.26 114.332 17.4C114.332 14.5 115.772 12.5 118.012 12.5C119.372 12.5 120.272 13.2 120.872 14.36H120.952V12.76H122.812V18.88C122.812 22.7 121.592 24.9 117.932 27.32L116.912 25.98ZM116.192 17.38C116.192 19.52 117.172 20.86 118.552 20.86C119.952 20.86 120.952 19.5 120.952 17.38C120.952 15.26 119.952 13.88 118.552 13.88C117.172 13.88 116.192 15.24 116.192 17.38Z" fill="#0066FF"/>
</g>
</svg>
