<svg width="12" height="12" viewBox="0 0 12 12" fill="none" xmlns="http://www.w3.org/2000/svg">
<g id="icon/chatbubble" clip-path="url(#clip0_434_41)">
<path id="Vector" fill-rule="evenodd" clip-rule="evenodd" d="M5.99555 1.5C3.49659 1.5 1.492 3.47507 1.49953 5.88961L1.49953 5.8902V5.89079C1.49951 6.73071 1.745 7.55225 2.20571 8.25437C2.23203 8.29032 2.25664 8.32748 2.27948 8.36573L2.28129 8.36877L2.28305 8.37184C2.32002 8.43651 2.36387 8.52363 2.39408 8.61983C2.42173 8.70787 2.45358 8.85139 2.41196 9.00457L2.41175 9.00537L2.02442 10.4064L3.36383 9.92301C3.497 9.86823 3.63969 9.84025 3.78375 9.8407C3.784 9.8407 3.78424 9.84071 3.78448 9.84071L3.78305 10.2157L3.78347 9.8407C3.78356 9.8407 3.78366 9.8407 3.78375 9.8407C3.91863 9.84089 4.05233 9.8658 4.17822 9.91419L4.17849 9.91429L4.17877 9.9144C4.25478 9.94375 4.55759 10.0562 4.85701 10.14C5.15136 10.2224 5.69493 10.3223 6.07946 10.3223C8.56595 10.3223 10.4995 8.32591 10.4995 5.89443L10.8745 5.8943H10.4995C10.4994 5.59267 10.4675 5.29189 10.4043 4.99696L10.4042 4.99656L10.4041 4.99617C9.98238 3.00798 8.1732 1.5 5.99555 1.5ZM0.749535 5.89136C0.740983 3.04446 3.0994 0.75 5.99555 0.75C8.52302 0.75 10.6414 2.50144 11.1377 4.84C11.2119 5.18648 11.2494 5.53982 11.2495 5.89417V5.8943C11.2495 8.73197 8.98824 11.0723 6.07946 11.0723C5.60617 11.0723 4.99193 10.9566 4.65487 10.8623C4.3233 10.7695 3.99605 10.6478 3.90891 10.6142C3.86861 10.5987 3.8258 10.5908 3.78263 10.5907L3.78213 10.5907L3.78162 10.5907C3.735 10.5905 3.68883 10.5998 3.6459 10.618L3.63654 10.6219L2.04608 11.1959C1.98005 11.223 1.91047 11.2405 1.83945 11.248L1.81945 11.2501L1.79934 11.25C1.71996 11.2498 1.64142 11.2338 1.56827 11.203C1.49511 11.1722 1.4288 11.1271 1.37317 11.0705C1.31754 11.0139 1.27369 10.9468 1.24418 10.8731C1.21466 10.7994 1.20006 10.7206 1.20122 10.6412L1.20138 10.63L1.20222 10.6187C1.20606 10.5674 1.21519 10.5167 1.22947 10.4672L1.67829 8.84376C1.67011 8.81803 1.65449 8.78389 1.63374 8.74723C1.62245 8.72855 1.61027 8.71042 1.59723 8.69291L1.59082 8.6843L1.58491 8.67534C1.04007 7.84906 0.749617 6.8811 0.749535 5.89136Z" fill="#878A93"/>
</g>
<defs>
<clipPath id="clip0_434_41">
<rect width="12" height="12" fill="white"/>
</clipPath>
</defs>
</svg>
