<svg width="12" height="12" viewBox="0 0 12 12" fill="none" xmlns="http://www.w3.org/2000/svg">
<g id="icon/heart">
<path id="Vector" d="M5.99995 10.5C5.8523 10.5 5.70698 10.4555 5.57808 10.3687C4.69683 9.77109 3.41714 8.84531 2.49839 7.725C1.56089 6.58359 1.11089 5.40938 1.12495 4.13906C1.13902 2.68359 2.30855 1.5 3.72886 1.5C4.8562 1.5 5.60386 2.19141 5.99995 2.69531C6.39605 2.19141 7.1437 1.5 8.27105 1.5C9.69136 1.5 10.8585 2.68359 10.875 4.13906C10.8867 5.40938 10.439 6.58359 9.50152 7.725C8.58277 8.84531 7.30308 9.77109 6.42183 10.3687C6.29292 10.4578 6.14761 10.5 5.99995 10.5ZM3.72886 2.25C2.7187 2.25 1.88667 3.10078 1.87495 4.14844C1.84917 6.6 3.94683 8.35781 5.99995 9.75C8.05308 8.35547 10.1507 6.6 10.125 4.14844C10.1132 3.10313 9.28355 2.25 8.27105 2.25C7.00542 2.25 6.3398 3.52969 6.33511 3.54375C6.27183 3.67031 6.14292 3.75 5.99995 3.75C5.85698 3.75 5.72808 3.67031 5.6648 3.54141C5.65777 3.52969 4.99214 2.25 3.72886 2.25Z" fill="#878A93"/>
</g>
</svg>
